<?xml version="1.0" encoding="UTF-8" standalone="no"?>
<svg
   xmlns:dc="http://purl.org/dc/elements/1.1/"
   xmlns:cc="http://creativecommons.org/ns#"
   xmlns:rdf="http://www.w3.org/1999/02/22-rdf-syntax-ns#"
   xmlns:svg="http://www.w3.org/2000/svg"
   xmlns="http://www.w3.org/2000/svg"
   xmlns:sodipodi="http://sodipodi.sourceforge.net/DTD/sodipodi-0.dtd"
   xmlns:inkscape="http://www.inkscape.org/namespaces/inkscape"
   width="17.4"
   height="20"
   viewBox="0 0 445.43999 512"
   version="1.1"
   xml:space="preserve"
   style="clip-rule:evenodd;fill-rule:evenodd;stroke-linejoin:round;stroke-miterlimit:1.41420996"
   id="svg3767"
   sodipodi:docname="logo.svg"
   inkscape:version="0.92.3 (2405546, 2018-03-11)"><metadata
   id="metadata3773"><rdf:RDF><cc:Work
       rdf:about=""><dc:format>image/svg+xml</dc:format><dc:type
         rdf:resource="http://purl.org/dc/dcmitype/StillImage" /></cc:Work></rdf:RDF></metadata><defs
   id="defs3771" /><sodipodi:namedview
   pagecolor="#ffffff"
   bordercolor="#666666"
   borderopacity="1"
   objecttolerance="10"
   gridtolerance="10"
   guidetolerance="10"
   inkscape:pageopacity="0"
   inkscape:pageshadow="2"
   inkscape:window-width="1366"
   inkscape:window-height="741"
   id="namedview3769"
   showgrid="false"
   inkscape:zoom="28.1"
   inkscape:cx="2.4653859"
   inkscape:cy="11.423488"
   inkscape:window-x="0"
   inkscape:window-y="2"
   inkscape:window-maximized="1"
   inkscape:current-layer="svg3767" />
    <g
   transform="scale(0.512)"
   id="g3765"
   style="display:inline;fill:#800000"
   inkscape:export-xdpi="96"
   inkscape:export-ydpi="96">
        <path
   d="M 614,252 V 138 H 461 V 92 H 401 C 401,41 359,0 308,0 257,0 215,41 215,92 h -62 v 46 H 0 V 850 H 219 V 288 252 Z M 308,30 c 34,0 62,28 62,63 0,34 -28,62 -62,62 -34,0 -62,-28 -62,-62 0,-35 28,-63 62,-63 z m -53,258 v 712 H 870 V 288 Z m 175,540 h -66 v -74 h 66 z m 0,-147 h -66 v -74 h 66 z m 0,-148 h -66 v -73 h 66 z M 760,828 H 496 v -74 h 264 z m 0,-147 H 496 v -74 h 264 z m 0,-148 H 496 v -73 h 264 z"
   style="display:inline;fill:#800000;fill-rule:nonzero"
   id="path3763"
   inkscape:connector-curvature="0" />
    </g>
</svg>